<?xml version="1.0" encoding="UTF-8"?>
<svg id="Layer_2" data-name="Layer 2" xmlns="http://www.w3.org/2000/svg" viewBox="0 0 1124.127659574466634 516.220290146320622">
  <g id="Layer_1-2" data-name="Layer 1">
    <g id="white_background" data-name="white background">
      <path d="m939.141743515557209,514.220290146320622H184.985916058906696c-100.898834066034397,0-182.985916058906696-76.393180351749834-182.985916058906696-170.293251361181319,0-93.900071009429666,82.087081992872299-170.2932513611795,182.985916058906696-170.2932513611795h754.155827456650513c100.898834066039853,0,182.985916058909424,76.393180351749834,182.985916058909424,170.2932513611795,0,93.900071009431485-82.087081992869571,170.293251361181319-182.985916058909424,170.293251361181319ZM184.985916058906696,177.571203640411113c-98.565441361593912,0-178.75502782633157,74.627303010529431-178.75502782633157,166.355835144728189,0,91.729493417460617,80.189586464737658,166.355835144740922,178.75502782633157,166.355835144740922h754.155827456650513c98.566474293289502,0,178.755027826329751-74.626341727280305,178.755027826329751-166.355835144740922,0-91.728532134198758-80.188553533040249-166.355835144728189-178.755027826329751-166.355835144728189H184.985916058906696Z" style="fill: none; stroke: #000; stroke-miterlimit: 10; stroke-width: 4px;"/>
      <circle cx="169.318394437747884" cy="345.21502685546875" r="119.433210829294836" style="fill: none; stroke: #222828; stroke-dasharray: 0 0 34.111392974853516 34.111392974853516; stroke-miterlimit: 10; stroke-width: 23px;"/>
      <circle cx="169.318397299204662" cy="345.954636986142759" r="120.041551048645474" style="fill: #222828;"/>
      <g>
        <path d="m184.48964799865189,302.660084783870843l-19.43480061898299-36.31468290119119s-18.0466005747694-.463715025069177-38.869601237965981,13.157913836510488c-16.658400530557628,10.897303089259367-23.599400751623762,27.243257723159331-23.599400751623762,27.243257723159331h45.1903418648144s7.561259815285666-4.086488658478629,17.278660124775342-5.448651544629683c9.717400309493314-1.362162886160149,19.43480061898299,1.362162886151054,19.43480061898299,1.362162886151054Z" style="fill: #ed1b25;"/>
        <path d="m192.198588669717537,306.065491999270307l-22.28504113530289-40.864886584740816s23.599400751623762,0,41.64600132639498,12.259465975419516c18.046600574771219,12.259465975421335,23.599400751621943,23.156769064691616,23.599400751621943,23.156769064691616l-21.757545675747679,37.296245482859376s-1.019114570161037-11-7.394686632589583-19.588127962810177c-6.383794504032267-8.599203891359139-13.808128634376772-12.259465975419516-13.808128634376772-12.259465975419516Z" style="fill: #ef5a70;"/>
        <path d="m198.114685384301083,380.9130859375s10.472089323637192-13.189185569210167,13.248489412062554-20c2.776400088427181-6.810814430789833,3.057343710477653-17,3.057343710477653-17l23.439635113649274-40s12.418327207869879,18.02947170942025,11.180796434073272,43.017292646509304c-.989650732486552,19.982707353490696-9.142567293756656,33.982707353490696-9.142567293756656,33.982707353490696h-41.783697376506097Z" style="fill: #c6569e;"/>
        <path d="m192.124748241824818,385.070939396440735h46.150267427294239s-10.057066277748163,21.794606178529648-30.880066940948382,31.329746381639779c-20.823000663196581,9.535140203099218-30.540400972688076,8.172977316949982-30.540400972688076,8.172977316949982l-20.823000663196581-35.416235040120227s8.329200265277905,2.724325772320299,19.43480061898299,1.362162886160149,16.658400530555809-5.448651544629683,16.658400530555809-5.448651544629683Z" style="fill: #009e4f;"/>
        <path d="m148.662272389495229,385.070939396440735l22.506562418944668,39.569991001610106s-19.995987870901445,1.975977026209875-40.12488851199123-9.602407506130476c-20.128900641089785-11.578384532351265-24.987600795837352-24.518931950849947-24.987600795837352-24.518931950849947l20.823000663196581-35.416235040111133s4.164600132640771,13.621628861581485,9.717400309491495,20.432443292371318c5.552800176854362,6.810814430789833,12.065525916195838,9.535140203110132,12.065525916195838,9.535140203110132Z" style="fill: #00aded;"/>
        <path d="m125.801275916713166,346.660597040679932l-22.464245557170216,40.252488896820068s-11.210260271745938-15-11.162685301063902-39.982707353490696c.046763713824475-24.556697786088989,8.329200265277905-35.416235040109314,8.329200265277905-35.416235040109314h41.424480042751384s-6.719478937418899,4.086488658480448-12.27227911427326,16.345954633899964c-4.164600132638952,8.172977316949982-3.85447033552191,18.800498862879977-3.85447033552191,18.800498862879977Z" style="fill: #faba1c;"/>
      </g>
      <ellipse cx="169.569196167440168" cy="346.058785579932191" rx="43.441536592973534" ry="44.77819925737731" style="fill: none; stroke: #d2d2d2; stroke-miterlimit: 10; stroke-width: 3px;"/>
      <path d="m169.508026008638808,380.367306931510029c-18.146928019032202,0-32.910349282232346-15.391099564551041-32.910349282232346-34.308498880500338s14.763421263200144-34.308498880500338,32.910349282232346-34.308498880500338,32.911112881138251,15.391099564551041,32.911112881138251,34.308498880500338-14.764184862106049,34.308498880500338-32.911112881138251,34.308498880500338Z" style="stroke: #434443; stroke-miterlimit: 10; stroke-width: 10px;"/>
      <circle cx="155.427257096705489" cy="327.454893442429238" r="8.226210809100165" style="fill: #a8aaac;"/>
      <circle cx="183.845076255418462" cy="367.838110141650304" r="3.739186731409745" style="fill: #fff;"/>
      <g>
        <g id="bus">
          <path d="m977.840959508296692,400.557003131940291h30.528310804429566v22.925645548290049c0,3.393690256993352-2.755245913216413,6.148936170209709-6.148936170209709,6.148936170209709h-18.230438464010149c-3.393690256993295,0-6.148936170209709-2.755245913216356-6.148936170209709-6.148936170209709v-22.925645548290049h0Z"/>
          <path d="m900.617592460376727,400.557003131940291h30.528310804420471v22.925645548290049c0,3.393690256993352-2.755245913216413,6.148936170209709-6.148936170209709,6.148936170209709h-18.230438464001054c-3.393690256993295,0-6.148936170209709-2.755245913216356-6.148936170209709-6.148936170209709v-22.925645548290049h0Z"/>
          <path d="m912.226188776236995,269.9130859375h86.802941596459277c13.292932079302773,0,24.085106382979575,10.792174303676802,24.085106382979575,24.085106382979575v108.447165500499977c0,6.981137916204318-5.667798254005334,12.648936170209709-12.648936170209709,12.648936170209709h-109.67528202199901c-6.981137916204375,0-12.648936170209709-5.66779825400539-12.648936170209709-12.648936170209709v-108.447165500499977c0-13.292932079302773,10.792174303676802-24.085106382979575,24.085106382979575-24.085106382979575Z" style="fill: #ffdc00; stroke: #000; stroke-miterlimit: 10; stroke-width: 3px;"/>
          <ellipse cx="915.44980722547416" cy="382.201676541527831" rx="12.56375838926715" ry="13.610738255033084" style="fill: #fff; stroke: #000; stroke-miterlimit: 10; stroke-width: 3px;"/>
          <ellipse cx="995.631015279168878" cy="382.201676541527831" rx="12.563758389261693" ry="13.610738255033084" style="fill: #fff; stroke: #000; stroke-miterlimit: 10; stroke-width: 3px;"/>
          <rect x="900.617592460376727" y="302.805703387159156" width="110.020134228179813" height="56.711409395980809" rx="5.563829787230134" ry="5.563829787230134" style="fill: #fff; stroke: #000; stroke-miterlimit: 10; stroke-width: 3px;"/>
          <rect x="911.95987433956634" y="280.121139628769015" width="88.469798657721185" height="18.14765100672048" rx="5.414893617018606" ry="5.414893617018606" style="fill: #fff; stroke: #000; stroke-miterlimit: 10; stroke-width: 3px;"/>
          <rect x="1026.516921319437643" y="302.805703387159156" width="13.610738255028991" height="41.966442953020305" rx="5.382978723398992" ry="5.382978723398992" style="fill: #fdda00; stroke: #000; stroke-miterlimit: 10; stroke-width: 3px;"/>
          <rect x="871.12765957446652" y="302.805703387159156" width="13.610738255029219" height="41.966442953020305" rx="5.382978723398992" ry="5.382978723398992" style="fill: #fdda00; stroke: #000; stroke-miterlimit: 10; stroke-width: 3px;"/>
          <g>
            <path d="m929.804417386966634,291.4638671875c.4423828125.2607421875,1.1337890625.48828125,1.84765625.48828125.884765625,0,1.3837890625-.419921875,1.3837890625-1.0439453125,0-.578125-.3857421875-.91796875-1.349609375-1.26953125-1.26953125-.453125-2.07421875-1.1220703125-2.07421875-2.2216796875,0-1.2587890625,1.04296875-2.19921875,2.708984375-2.19921875.828125,0,1.4287109375.1806640625,1.8251953125.384765625l-.328125,1.123046875c-.283203125-.1474609375-.81640625-.36328125-1.5302734375-.36328125-.884765625,0-1.2587890625.46484375-1.2587890625.91796875,0,.58984375.4423828125.8623046875,1.4619140625,1.2587890625,1.3271484375.4990234375,1.9619140625,1.16796875,1.9619140625,2.267578125,0,1.2353515625-.9296875,2.3017578125-2.8916015625,2.3017578125-.8154296875,0-1.654296875-.2265625-2.07421875-.48828125l.3173828125-1.15625Z"/>
            <path d="m939.783909574466634,292.8134765625c-.2939453125.1357421875-.873046875.283203125-1.564453125.283203125-1.72265625,0-2.845703125-1.111328125-2.845703125-2.8232421875,0-1.6552734375,1.1337890625-2.935546875,3.072265625-2.935546875.5107421875,0,1.0322265625.11328125,1.349609375.2490234375l-.2490234375,1.0546875c-.2275390625-.11328125-.5556640625-.2158203125-1.0546875-.2158203125-1.0654296875,0-1.7001953125.7822265625-1.689453125,1.791015625,0,1.1337890625.7373046875,1.7802734375,1.689453125,1.7802734375.4755859375,0,.8271484375-.1015625,1.099609375-.2158203125l.1923828125,1.0322265625Z"/>
            <path d="m940.817112699466634,284.93359375h1.39453125v3.2763671875h.0224609375c.1708984375-.2607421875.408203125-.4755859375.6923828125-.623046875.283203125-.1591796875.611328125-.2490234375.962890625-.2490234375.94140625,0,1.927734375.623046875,1.927734375,2.3916015625v3.25390625h-1.39453125v-3.1064453125c0-.7939453125-.294921875-1.40625-1.0654296875-1.40625-.544921875,0-.9296875.36328125-1.0888671875.783203125-.044921875.1240234375-.056640625.271484375-.056640625.4189453125v3.310546875h-1.39453125v-8.0498046875Z"/>
            <path d="m952.554417386966634,290.171875c0,2.029296875-1.427734375,2.9365234375-2.833984375,2.9365234375-1.552734375,0-2.7666015625-1.06640625-2.7666015625-2.845703125,0-1.814453125,1.1904296875-2.9248046875,2.857421875-2.9248046875,1.6435546875,0,2.7431640625,1.15625,2.7431640625,2.833984375Zm-4.16015625.056640625c0,1.0654296875.5322265625,1.8701171875,1.37109375,1.8701171875.7939453125,0,1.349609375-.7705078125,1.349609375-1.892578125,0-.8623046875-.3857421875-1.859375-1.337890625-1.859375-.986328125,0-1.3828125.9638671875-1.3828125,1.8818359375Z"/>
            <path d="m958.950901761966634,290.171875c0,2.029296875-1.427734375,2.9365234375-2.833984375,2.9365234375-1.552734375,0-2.7666015625-1.06640625-2.7666015625-2.845703125,0-1.814453125,1.1904296875-2.9248046875,2.857421875-2.9248046875,1.6435546875,0,2.7431640625,1.15625,2.7431640625,2.833984375Zm-4.16015625.056640625c0,1.0654296875.5322265625,1.8701171875,1.37109375,1.8701171875.7939453125,0,1.349609375-.7705078125,1.349609375-1.892578125,0-.8623046875-.3857421875-1.859375-1.337890625-1.859375-.986328125,0-1.3828125.9638671875-1.3828125,1.8818359375Z"/>
            <path d="m960.099339261966634,284.93359375h1.39453125v8.0498046875h-1.39453125v-8.0498046875Z"/>
            <path d="m965.418675199466634,285.455078125c.4423828125-.0908203125,1.2470703125-.169921875,2.041015625-.169921875,1.0205078125,0,1.6669921875.13671875,2.1767578125.4873046875.4765625.2841796875.7939453125.7822265625.7939453125,1.4404296875,0,.703125-.4423828125,1.337890625-1.2705078125,1.6435546875v.0341796875c.8056640625.2041015625,1.5419921875.8388671875,1.5419921875,1.8818359375,0,.6806640625-.294921875,1.212890625-.7255859375,1.5869140625-.5439453125.46484375-1.439453125.703125-2.845703125.703125-.7705078125,0-1.3486328125-.056640625-1.7119140625-.1015625v-7.505859375Zm1.3837890625,3.015625h.7138671875c.974609375,0,1.5078125-.453125,1.5078125-1.099609375,0-.7255859375-.5439453125-1.0537109375-1.4287109375-1.0537109375-.408203125,0-.6455078125.0224609375-.79296875.056640625v2.0966796875Zm0,3.50390625c.1806640625.0341796875.4189453125.0341796875.736328125.0341796875.8955078125,0,1.701171875-.3291015625,1.701171875-1.2705078125,0-.8955078125-.7822265625-1.2578125-1.74609375-1.2578125h-.69140625v2.494140625Z"/>
            <path d="m976.837620511966634,291.328125c0,.6572265625.0224609375,1.2021484375.044921875,1.6552734375h-1.212890625l-.068359375-.8271484375h-.033203125c-.23828125.384765625-.7822265625.9521484375-1.7802734375.9521484375s-1.916015625-.6015625-1.916015625-2.4033203125v-3.2431640625h1.39453125v3.0048828125c0,.91796875.294921875,1.5078125,1.03125,1.5078125.5673828125,0,.9296875-.3857421875,1.06640625-.748046875.056640625-.1142578125.0791015625-.2724609375.0791015625-.431640625v-3.3330078125h1.39453125v3.8662109375Z"/>
            <path d="m978.291722074466634,291.69140625c.306640625.1923828125.9072265625.4072265625,1.40625.4072265625.6123046875,0,.8837890625-.2607421875.8837890625-.623046875,0-.3740234375-.2265625-.5556640625-.90625-.8046875-1.0771484375-.36328125-1.51953125-.953125-1.51953125-1.6103515625,0-.974609375.8046875-1.72265625,2.0859375-1.72265625.6123046875,0,1.1455078125.146484375,1.4736328125.328125l-.283203125.9755859375c-.2265625-.13671875-.6806640625-.3173828125-1.16796875-.3173828125-.4990234375,0-.7705078125.2490234375-.7705078125.5888671875,0,.3515625.2607421875.5107421875.9638671875.771484375,1.0087890625.3515625,1.4619140625.861328125,1.4736328125,1.677734375,0,1.0087890625-.7822265625,1.734375-2.2451171875,1.734375-.6689453125,0-1.26953125-.158203125-1.677734375-.3857421875l.283203125-1.01953125Z"/>
          </g>
        </g>
        <path d="m958.667313582956012,317.096950863829989c-6.691835544248534-4.378104190700469-14.846869756709566-.226928710939319-16.661745621850059,5.977404703229695-3.493511430369836,10.276035385650175,10.491610738261443,22.832018961049471,10.491610738261443,22.832018961049471,0,0,8.336687945669837-6.691973999848415,10.809227860208921-15.867841272549413,1.304251651639788-4.854529873638967-.363030555270598-10.151286899650586-4.639092976620304-12.941582391729753Zm-5.875224478289965,15.19868540923926c-3.130480875099238,0-5.671140939590259-2.540660064489202-5.671140939590259-5.671140939599354,0-3.130480875099238,2.540660064491021-5.671140939590259,5.671140939590259-5.671140939590259,3.130480875110152,0,5.671140939601173,2.540660064491021,5.671140939601173,5.671140939590259,0,3.130480875110152-2.540660064491021,5.671140939599354-5.671140939601173,5.671140939599354Z" style="fill: #ff3d00;"/>
      </g>
      <line x1="852.627659574466634" y1="235.4130859375" x2="852.627659574466634" y2="457.4130859375" style="fill: none; stroke: #000; stroke-linecap: round; stroke-miterlimit: 10; stroke-width: 7px;"/>
      <g>
        <path d="m335.408909574466634,286.6279296875c4.0751953125-.7236328125,9.599609375-1.267578125,17.025390625-1.267578125,8.150390625,0,14.037109375,1.720703125,17.931640625,4.9814453125,3.6220703125,2.98828125,5.9765625,7.7880859375,5.9765625,13.4931640625,0,5.7958984375-1.810546875,10.505859375-5.162109375,13.765625-4.52734375,4.4375-11.41015625,6.6103515625-19.2890625,6.6103515625-2.0830078125,0-3.89453125-.08984375-5.43359375-.4521484375v23.0927734375h-11.048828125v-60.2236328125Zm11.048828125,28.345703125c1.44921875.453125,3.169921875.5439453125,5.43359375.5439453125,8.33203125,0,13.40234375-4.166015625,13.40234375-11.2294921875,0-6.7919921875-4.708984375-10.32421875-12.40625-10.32421875-3.0791015625,0-5.251953125.271484375-6.4296875.54296875v20.466796875Z"/>
        <path d="m391.826878324466634,329.5546875l-5.25390625,17.296875h-11.5l19.560546875-61.0380859375h14.21875l19.83203125,61.0380859375h-12.044921875l-5.5234375-17.296875h-19.2890625Zm17.4775390625-8.4228515625l-4.7998046875-15.033203125c-1.177734375-3.712890625-2.173828125-7.87890625-3.0791015625-11.41015625h-.1806640625c-.90625,3.53125-1.90234375,7.7880859375-2.8984375,11.41015625l-4.708984375,15.033203125h15.6669921875Z"/>
        <path d="m437.193089261966634,286.7197265625c4.2568359375-.8154296875,10.4150390625-1.359375,16.8447265625-1.359375,8.7841796875,0,14.669921875,1.44921875,18.8359375,4.890625,3.3515625,2.8076171875,5.2529296875,7.064453125,5.2529296875,12.31640625,0,7.87890625-5.3427734375,13.2216796875-11.138671875,15.2138671875v.271484375c4.4365234375,1.630859375,7.0634765625,5.88671875,8.5126953125,11.7734375,1.9921875,7.607421875,3.6220703125,14.6708984375,4.798828125,17.025390625h-11.41015625c-.9052734375-1.8115234375-2.4453125-6.7919921875-4.0751953125-14.3994140625-1.8115234375-7.96875-4.6181640625-10.5048828125-10.9580078125-10.685546875h-5.615234375v25.0849609375h-11.0478515625v-60.1318359375Zm11.0478515625,26.896484375h6.611328125c7.517578125,0,12.1357421875-3.9853515625,12.1357421875-10.052734375,0-6.611328125-4.6181640625-9.78125-11.8642578125-9.78125-3.53125,0-5.794921875.2724609375-6.8828125.5439453125v19.2900390625Z"/>
        <path d="m522.860081449466634,319.7734375h-23.001953125v17.931640625h25.71875v9.146484375h-36.857421875v-61.0380859375h35.5v9.146484375h-24.361328125v15.7578125h23.001953125v9.0556640625Z"/>
        <path d="m535.266331449466634,346.8515625v-61.0380859375h12.7685546875l15.7568359375,26.171875c3.9853515625,6.7919921875,7.607421875,13.8564453125,10.4150390625,20.466796875h.1806640625c-.814453125-8.150390625-.99609375-16.029296875-.99609375-25.357421875v-21.28125h10.32421875v61.0380859375h-11.591796875l-15.9384765625-26.896484375c-3.8935546875-6.7021484375-7.87890625-14.1279296875-10.8671875-21.0107421875l-.3623046875.0908203125c.453125,7.87890625.6337890625,15.9384765625.6337890625,25.9912109375v21.8251953125h-10.3232421875Z"/>
        <path d="m608.254612699466634,295.1416015625h-17.38671875v-9.328125h46.0947265625v9.328125h-17.568359375v51.7099609375h-11.1396484375v-51.7099609375Z"/>
        <path d="m643.209690824466634,334.716796875c3.53125,2.08203125,9.0556640625,3.8935546875,14.7607421875,3.8935546875,7.064453125,0,11.048828125-3.3505859375,11.048828125-8.3310546875,0-4.619140625-3.0791015625-7.3359375-10.7763671875-10.1435546875-10.1435546875-3.6220703125-16.5732421875-8.96484375-16.5732421875-17.75,0-10.0517578125,8.33203125-17.568359375,21.64453125-17.568359375,6.6103515625,0,11.41015625,1.44921875,14.580078125,3.0791015625l-2.6259765625,8.9658203125c-2.2646484375-1.177734375-6.5205078125-2.8984375-12.2265625-2.8984375-7.0634765625,0-10.0517578125,3.712890625-10.0517578125,7.3359375,0,4.708984375,3.5322265625,6.8828125,11.6826171875,10.0517578125,10.595703125,3.984375,15.6669921875,9.328125,15.6669921875,18.1123046875,0,9.87109375-7.42578125,18.3837890625-23.0927734375,18.3837890625-6.5205078125,0-13.22265625-1.8115234375-16.5732421875-3.8935546875l2.5361328125-9.2373046875Z"/>
        <path d="m724.530979886966634,319.7734375h-23.0029296875v17.931640625h25.7197265625v9.146484375h-36.8583984375v-61.0380859375h35.5v9.146484375h-24.361328125v15.7578125h23.0029296875v9.0556640625Z"/>
        <path d="m750.881565824466634,346.8515625v-25.447265625l-19.2890625-35.5908203125h12.76953125l7.244140625,15.6669921875c2.0830078125,4.5283203125,3.623046875,7.9697265625,5.34375,12.1357421875h.1806640625c1.44921875-3.89453125,3.169921875-7.6982421875,5.2529296875-12.1357421875l7.3349609375-15.6669921875h12.587890625l-20.28515625,35.318359375v25.7197265625h-11.1396484375Z"/>
        <path d="m822.062229886966634,319.7734375h-23.0029296875v17.931640625h25.7197265625v9.146484375h-36.8583984375v-61.0380859375h35.5v9.146484375h-24.361328125v15.7578125h23.0029296875v9.0556640625Z"/>
      </g>
      <g>
        <path d="m337.588597074466634,409.400390625c1.56640625,1.00390625,3.814453125,1.7666015625,6.22265625,1.7666015625,3.5732421875,0,5.66015625-1.88671875,5.66015625-4.6162109375,0-2.4892578125-1.4453125-3.974609375-5.09765625-5.33984375-4.416015625-1.60546875-7.146484375-3.9345703125-7.146484375-7.7080078125,0-4.21484375,3.4921875-7.3466796875,8.751953125-7.3466796875,2.73046875,0,4.77734375.642578125,5.94140625,1.3251953125l-.962890625,2.849609375c-.84375-.521484375-2.650390625-1.2841796875-5.099609375-1.2841796875-3.693359375,0-5.09765625,2.2080078125-5.09765625,4.0546875,0,2.529296875,1.6455078125,3.7734375,5.37890625,5.21875,4.5771484375,1.7666015625,6.865234375,3.974609375,6.865234375,7.94921875,0,4.1748046875-3.05078125,7.828125-9.43359375,7.828125-2.609375,0-5.4609375-.802734375-6.90625-1.7666015625l.923828125-2.9306640625Z"/>
        <path d="m371.791722074466634,412.9736328125c-.923828125.44140625-2.970703125,1.1240234375-5.580078125,1.1240234375-5.861328125,0-9.67578125-3.974609375-9.67578125-9.916015625,0-5.9814453125,4.095703125-10.357421875,10.4384765625-10.357421875,2.087890625,0,3.9345703125.521484375,4.8974609375,1.0439453125l-.802734375,2.689453125c-.8427734375-.44140625-2.16796875-.9228515625-4.0947265625-.9228515625-4.4560546875,0-6.8642578125,3.33203125-6.8642578125,7.3466796875,0,4.49609375,2.890625,7.265625,6.744140625,7.265625,2.0068359375,0,3.33203125-.4814453125,4.3359375-.9228515625l.6015625,2.6494140625Z"/>
        <path d="m375.926487699466634,385.15234375h3.533203125v12.1640625h.080078125c.5625-1.0029296875,1.4453125-1.9267578125,2.529296875-2.5283203125,1.04296875-.6025390625,2.2880859375-.9638671875,3.61328125-.9638671875,2.609375,0,6.7841796875,1.60546875,6.7841796875,8.2705078125v11.5615234375h-3.5322265625v-11.16015625c0-3.1318359375-1.1650390625-5.7412109375-4.4970703125-5.7412109375-2.2880859375,0-4.0546875,1.60546875-4.7373046875,3.4921875-.201171875.5224609375-.240234375,1.0439453125-.240234375,1.6865234375v11.72265625h-3.533203125v-28.50390625Z"/>
        <path d="m415.789768949466634,403.7802734375c0,7.1865234375-5.017578125,10.3173828125-9.6748046875,10.3173828125-5.21875,0-9.3134765625-3.853515625-9.3134765625-9.99609375,0-6.4638671875,4.294921875-10.27734375,9.634765625-10.27734375,5.580078125,0,9.353515625,4.0546875,9.353515625,9.9560546875Zm-15.375.201171875c0,4.2548828125,2.408203125,7.466796875,5.861328125,7.466796875,3.37109375,0,5.900390625-3.171875,5.900390625-7.5478515625,0-3.2919921875-1.6455078125-7.4267578125-5.8203125-7.4267578125-4.134765625,0-5.94140625,3.8544921875-5.94140625,7.5078125Z"/>
        <path d="m437.828831449466634,403.7802734375c0,7.1865234375-5.017578125,10.3173828125-9.6748046875,10.3173828125-5.21875,0-9.3134765625-3.853515625-9.3134765625-9.99609375,0-6.4638671875,4.294921875-10.27734375,9.634765625-10.27734375,5.580078125,0,9.353515625,4.0546875,9.353515625,9.9560546875Zm-15.375.201171875c0,4.2548828125,2.408203125,7.466796875,5.861328125,7.466796875,3.37109375,0,5.900390625-3.171875,5.900390625-7.5478515625,0-3.2919921875-1.6455078125-7.4267578125-5.8203125-7.4267578125-4.134765625,0-5.94140625,3.8544921875-5.94140625,7.5078125Z"/>
        <path d="m442.284886136966634,385.15234375h3.5322265625v28.50390625h-3.5322265625v-28.50390625Z"/>
        <path d="m460.389378324466634,386.9990234375c1.525390625-.361328125,3.974609375-.6015625,6.3828125-.6015625,3.4921875,0,5.7412109375.6015625,7.38671875,1.966796875,1.4052734375,1.0439453125,2.2890625,2.6494140625,2.2890625,4.77734375,0,2.6494140625-1.7666015625,4.9384765625-4.5771484375,5.94140625v.12109375c2.5693359375.6015625,5.5810546875,2.7294921875,5.5810546875,6.744140625,0,2.328125-.923828125,4.134765625-2.3291015625,5.419921875-1.8466796875,1.7255859375-4.8974609375,2.529296875-9.3134765625,2.529296875-2.4091796875,0-4.255859375-.1611328125-5.419921875-.3212890625v-26.5771484375Zm3.4921875,11.0810546875h3.171875c3.6533203125,0,5.8212890625-1.9677734375,5.8212890625-4.5771484375,0-3.130859375-2.3681640625-4.416015625-5.9013671875-4.416015625-1.60546875,0-2.529296875.1201171875-3.091796875.2412109375v8.751953125Zm0,12.9267578125c.72265625.1201171875,1.6865234375.16015625,2.931640625.16015625,3.6123046875,0,6.9443359375-1.32421875,6.9443359375-5.2587890625,0-3.6533203125-3.1708984375-5.21875-6.9853515625-5.21875h-2.890625v10.3173828125Z"/>
        <path d="m498.285862699466634,408.31640625c0,2.0478515625.0400390625,3.814453125.16015625,5.33984375h-3.130859375l-.201171875-3.171875h-.080078125c-.8828125,1.56640625-2.970703125,3.61328125-6.423828125,3.61328125-3.05078125,0-6.7041015625-1.7255859375-6.7041015625-8.5107421875v-11.361328125h3.533203125v10.71875c0,3.693359375,1.1640625,6.22265625,4.3349609375,6.22265625,2.369140625,0,4.015625-1.6455078125,4.658203125-3.251953125.2001953125-.4814453125.3203125-1.1240234375.3203125-1.806640625v-11.8828125h3.533203125v14.0908203125Z"/>
        <path d="m503.664768949466634,410.0830078125c1.083984375.642578125,2.9296875,1.365234375,4.697265625,1.365234375,2.529296875,0,3.732421875-1.244140625,3.732421875-2.890625,0-1.685546875-1.0029296875-2.5693359375-3.572265625-3.533203125-3.533203125-1.2841796875-5.1787109375-3.1708984375-5.1787109375-5.5,0-3.130859375,2.5693359375-5.7001953125,6.7041015625-5.7001953125,1.966796875,0,3.693359375.521484375,4.7373046875,1.2041015625l-.8427734375,2.5693359375c-.763671875-.4814453125-2.16796875-1.1640625-3.974609375-1.1640625-2.087890625,0-3.2119140625,1.2041015625-3.2119140625,2.6494140625,0,1.6064453125,1.1240234375,2.3291015625,3.6533203125,3.33203125,3.33203125,1.2451171875,5.0986328125,2.9306640625,5.0986328125,5.8212890625,0,3.453125-2.6904296875,5.861328125-7.2265625,5.861328125-2.1279296875,0-4.0947265625-.5615234375-5.4599609375-1.365234375l.84375-2.6494140625Z"/>
        <path d="m532.167698636966634,389.568359375h-8.2294921875v-2.970703125h20.0322265625v2.970703125h-8.2705078125v24.087890625h-3.5322265625v-24.087890625Z"/>
        <path d="m545.053440824466634,400.2880859375c0-2.2890625-.0400390625-4.255859375-.16015625-6.0625h3.0908203125l.1611328125,3.8544921875h.119140625c.8837890625-2.6103515625,3.0517578125-4.255859375,5.419921875-4.255859375.361328125,0,.642578125.0400390625.9638671875.080078125v3.33203125c-.361328125-.080078125-.72265625-.080078125-1.2041015625-.080078125-2.4892578125,0-4.255859375,1.8466796875-4.7373046875,4.49609375-.0810546875.482421875-.1201171875,1.083984375-.1201171875,1.646484375v10.357421875h-3.533203125v-13.3681640625Z"/>
        <path d="m571.629612699466634,408.9990234375c0,1.6865234375.080078125,3.33203125.28125,4.6572265625h-3.171875l-.28125-2.44921875h-.1201171875c-1.083984375,1.525390625-3.1708984375,2.890625-5.94140625,2.890625-3.9345703125,0-5.94140625-2.76953125-5.94140625-5.580078125,0-4.697265625,4.1748046875-7.2666015625,11.6826171875-7.2265625v-.4013671875c0-1.5654296875-.44140625-4.49609375-4.416015625-4.4560546875-1.84765625,0-3.734375.5224609375-5.099609375,1.4453125l-.802734375-2.3681640625c1.6064453125-1.00390625,3.974609375-1.6865234375,6.423828125-1.6865234375,5.94140625,0,7.38671875,4.0546875,7.38671875,7.9091796875v7.265625Zm-3.412109375-5.2587890625c-3.853515625-.080078125-8.23046875.6025390625-8.23046875,4.3759765625,0,2.328125,1.525390625,3.3720703125,3.29296875,3.3720703125,2.568359375,0,4.21484375-1.60546875,4.77734375-3.251953125.1201171875-.4013671875.16015625-.802734375.16015625-1.1240234375v-3.3720703125Z"/>
        <path d="m591.180393949466634,412.9736328125c-.923828125.44140625-2.970703125,1.1240234375-5.580078125,1.1240234375-5.861328125,0-9.67578125-3.974609375-9.67578125-9.916015625,0-5.9814453125,4.095703125-10.357421875,10.4375-10.357421875,2.087890625,0,3.935546875.521484375,4.8984375,1.0439453125l-.802734375,2.689453125c-.84375-.44140625-2.16796875-.9228515625-4.095703125-.9228515625-4.455078125,0-6.8642578125,3.33203125-6.8642578125,7.3466796875,0,4.49609375,2.890625,7.265625,6.7451171875,7.265625,2.005859375,0,3.33203125-.4814453125,4.3349609375-.9228515625l.6025390625,2.6494140625Z"/>
        <path d="m598.807347074466634,403.1376953125h.080078125c.4814453125-.6826171875,1.1240234375-1.525390625,1.685546875-2.2080078125l5.7412109375-6.7041015625h4.21484375l-7.466796875,7.9892578125,8.55078125,11.44140625h-4.3349609375l-6.6640625-9.3134765625-1.806640625,2.0068359375v7.306640625h-3.4931640625v-28.50390625h3.4931640625v17.9853515625Z"/>
        <path d="m618.758518949466634,388.765625c0,1.2041015625-.84375,2.16796875-2.248046875,2.16796875-1.28515625,0-2.1279296875-.9638671875-2.1279296875-2.16796875s.8828125-2.2080078125,2.2080078125-2.2080078125c1.2841796875,0,2.16796875.9638671875,2.16796875,2.2080078125Zm-3.9345703125,24.890625v-19.4306640625h3.533203125v19.4306640625h-3.533203125Z"/>
        <path d="m624.217503324466634,399.484375c0-2.046875-.0400390625-3.6533203125-.16015625-5.2587890625h3.130859375l.201171875,3.2119140625h.080078125c.962890625-1.806640625,3.2119140625-3.61328125,6.4228515625-3.61328125,2.6904296875,0,6.865234375,1.60546875,6.865234375,8.2705078125v11.5615234375h-3.533203125v-11.201171875c0-3.130859375-1.1640625-5.740234375-4.49609375-5.740234375-2.2880859375,0-4.0947265625,1.6455078125-4.7373046875,3.61328125-.16015625.44140625-.240234375,1.0439453125-.240234375,1.6455078125v11.6826171875h-3.533203125v-14.171875Z"/>
        <path d="m663.117893949466634,410.8056640625c0,4.49609375-.9228515625,7.1865234375-2.76953125,8.9130859375-1.927734375,1.7255859375-4.6572265625,2.328125-7.1064453125,2.328125-2.328125,0-4.8974609375-.5625-6.462890625-1.6064453125l.8828125-2.7294921875c1.28515625.8427734375,3.2919921875,1.5654296875,5.701171875,1.5654296875,3.61328125,0,6.2626953125-1.88671875,6.2626953125-6.82421875v-2.1279296875h-.080078125c-1.0439453125,1.806640625-3.171875,3.251953125-6.1826171875,3.251953125-4.8173828125,0-8.2705078125-4.0947265625-8.2705078125-9.474609375,0-6.583984375,4.2958984375-10.27734375,8.7919921875-10.27734375,3.3720703125,0,5.1787109375,1.7265625,6.0625,3.33203125h.080078125l.1201171875-2.9306640625h3.1318359375c-.12109375,1.365234375-.1611328125,2.970703125-.1611328125,5.298828125v11.28125Zm-3.5322265625-8.912109375c0-.6025390625-.0400390625-1.1240234375-.201171875-1.5654296875-.642578125-2.087890625-2.328125-3.7744140625-4.9375-3.7744140625-3.373046875,0-5.78125,2.8505859375-5.78125,7.3466796875,0,3.814453125,1.966796875,6.9853515625,5.7412109375,6.9853515625,2.2080078125,0,4.1748046875-1.3642578125,4.8974609375-3.6123046875.2001953125-.6025390625.28125-1.28515625.28125-1.8876953125v-3.4921875Z"/>
        <path d="m677.126683011966634,409.400390625c1.5654296875,1.00390625,3.8134765625,1.7666015625,6.22265625,1.7666015625,3.5732421875,0,5.66015625-1.88671875,5.66015625-4.6162109375,0-2.4892578125-1.4443359375-3.974609375-5.09765625-5.33984375-4.416015625-1.60546875-7.146484375-3.9345703125-7.146484375-7.7080078125,0-4.21484375,3.4931640625-7.3466796875,8.751953125-7.3466796875,2.7294921875,0,4.77734375.642578125,5.94140625,1.3251953125l-.962890625,2.849609375c-.84375-.521484375-2.650390625-1.2841796875-5.0986328125-1.2841796875-3.693359375,0-5.0986328125,2.2080078125-5.0986328125,4.0546875,0,2.529296875,1.6455078125,3.7734375,5.37890625,5.21875,4.5771484375,1.7666015625,6.865234375,3.974609375,6.865234375,7.94921875,0,4.1748046875-3.05078125,7.828125-9.4345703125,7.828125-2.609375,0-5.458984375-.802734375-6.904296875-1.7666015625l.9228515625-2.9306640625Z"/>
        <path d="m715.064183011966634,403.7802734375c0,7.1865234375-5.0185546875,10.3173828125-9.6748046875,10.3173828125-5.2197265625,0-9.314453125-3.853515625-9.314453125-9.99609375,0-6.4638671875,4.2958984375-10.27734375,9.634765625-10.27734375,5.5810546875,0,9.3544921875,4.0546875,9.3544921875,9.9560546875Zm-15.3759765625.201171875c0,4.2548828125,2.4091796875,7.466796875,5.861328125,7.466796875,3.3720703125,0,5.9013671875-3.171875,5.9013671875-7.5478515625,0-3.2919921875-1.6455078125-7.4267578125-5.8212890625-7.4267578125-4.134765625,0-5.94140625,3.8544921875-5.94140625,7.5078125Z"/>
        <path d="m719.519261136966634,385.15234375h3.533203125v28.50390625h-3.533203125v-28.50390625Z"/>
        <path d="m745.251683011966634,408.31640625c0,2.0478515625.0400390625,3.814453125.1611328125,5.33984375h-3.1318359375l-.2001953125-3.171875h-.0810546875c-.8828125,1.56640625-2.970703125,3.61328125-6.4228515625,3.61328125-3.05078125,0-6.7041015625-1.7255859375-6.7041015625-8.5107421875v-11.361328125h3.5322265625v10.71875c0,3.693359375,1.1640625,6.22265625,4.3359375,6.22265625,2.369140625,0,4.0146484375-1.6455078125,4.6572265625-3.251953125.2001953125-.4814453125.3212890625-1.1240234375.3212890625-1.806640625v-11.8828125h3.5322265625v14.0908203125Z"/>
        <path d="m755.368870511966634,389.568359375v4.6572265625h5.0576171875v2.689453125h-5.0576171875v10.478515625c0,2.408203125.681640625,3.7734375,2.6494140625,3.7734375.962890625,0,1.525390625-.080078125,2.046875-.240234375l.1611328125,2.689453125c-.6826171875.2412109375-1.7666015625.4814453125-3.1318359375.4814453125-1.6455078125,0-2.970703125-.5615234375-3.8134765625-1.4853515625-.9638671875-1.083984375-1.365234375-2.810546875-1.365234375-5.0986328125v-10.5986328125h-3.0107421875v-2.689453125h3.0107421875v-3.61328125l3.453125-1.0439453125Z"/>
        <path d="m768.334690824466634,388.765625c0,1.2041015625-.84375,2.16796875-2.248046875,2.16796875-1.28515625,0-2.1279296875-.9638671875-2.1279296875-2.16796875s.8828125-2.2080078125,2.2080078125-2.2080078125c1.2841796875,0,2.16796875.9638671875,2.16796875,2.2080078125Zm-3.9345703125,24.890625v-19.4306640625h3.533203125v19.4306640625h-3.533203125Z"/>
        <path d="m791.377659574466634,403.7802734375c0,7.1865234375-5.0185546875,10.3173828125-9.6748046875,10.3173828125-5.2197265625,0-9.314453125-3.853515625-9.314453125-9.99609375,0-6.4638671875,4.2958984375-10.27734375,9.634765625-10.27734375,5.5810546875,0,9.3544921875,4.0546875,9.3544921875,9.9560546875Zm-15.3759765625.201171875c0,4.2548828125,2.4091796875,7.466796875,5.861328125,7.466796875,3.3720703125,0,5.9013671875-3.171875,5.9013671875-7.5478515625,0-3.2919921875-1.6455078125-7.4267578125-5.8212890625-7.4267578125-4.134765625,0-5.94140625,3.8544921875-5.94140625,7.5078125Z"/>
        <path d="m795.832737699466634,399.484375c0-2.046875-.0400390625-3.6533203125-.16015625-5.2587890625h3.130859375l.201171875,3.2119140625h.080078125c.962890625-1.806640625,3.2119140625-3.61328125,6.4228515625-3.61328125,2.6904296875,0,6.865234375,1.60546875,6.865234375,8.2705078125v11.5615234375h-3.533203125v-11.201171875c0-3.130859375-1.1640625-5.740234375-4.49609375-5.740234375-2.2880859375,0-4.0947265625,1.6455078125-4.7373046875,3.61328125-.16015625.44140625-.240234375,1.0439453125-.240234375,1.6455078125v11.6826171875h-3.533203125v-14.171875Z"/>
      </g>
    </g>
  </g>
</svg>